<?xml version="1.0" encoding="UTF-8"?>
<svg viewBox="0 0 400 400" xmlns="http://www.w3.org/2000/svg" xmlns:xlink="http://www.w3.org/1999/xlink">
 <defs>
  <filter id="v" x="-.027719" y="-.11514" width="1.0554" height="1.2303">
   <feGaussianBlur stdDeviation="4.172418"/>
  </filter>
  <filter id="u">
   <feGaussianBlur stdDeviation="4.172418"/>
  </filter>
  <filter id="r">
   <feGaussianBlur stdDeviation="1.126101"/>
  </filter>
  <filter id="s">
   <feGaussianBlur stdDeviation="4.799788"/>
  </filter>
  <filter id="t">
   <feGaussianBlur stdDeviation="1.080312"/>
  </filter>
  <linearGradient id="o" x1=".05569" x2=".5134" y1=".50175" y2="1.0062">
   <stop stop-color="#787878" offset="0"/>
   <stop stop-color="#fff" offset=".5"/>
   <stop stop-color="#787878" offset="1"/>
  </linearGradient>
  <linearGradient id="p" x1=".77475" x2=".10482" y1=".19311" y2=".78657">
   <stop stop-color="#787878" offset="0"/>
   <stop stop-color="#cbcbcb" offset=".5"/>
   <stop stop-color="#787878" offset="1"/>
  </linearGradient>
  <linearGradient id="q" x1=".81791" x2=".22158" y1=".40599" y2=".89804">
   <stop stop-color="#787878" offset="0"/>
   <stop stop-color="#c7c7c7" offset=".62963"/>
   <stop stop-color="#787878" offset="1"/>
  </linearGradient>
  <linearGradient id="m" x1=".45619" x2=".48109" y1=".12749" y2=".68432" xlink:href="#a"/>
  <linearGradient id="l" x1=".51607" x2=".44847" y1=".73845" y2=".29707" xlink:href="#a"/>
  <linearGradient id="n" x1=".55027" x2=".45592" y1=".73378" y2=".17624">
   <stop stop-color="#787878" offset="0"/>
   <stop stop-color="#b3b3b3" offset=".5"/>
   <stop stop-color="#787878" offset="1"/>
  </linearGradient>
  <linearGradient id="j" x1=".5" x2=".5" y1="-.20769" y2=".45244">
   <stop offset="0"/>
   <stop stop-color="#fff" offset="1"/>
  </linearGradient>
  <linearGradient id="k" x1=".5" x2=".5" y1="-.14883" y2=".5">
   <stop offset="0"/>
   <stop stop-color="#fff" offset="1"/>
  </linearGradient>
  <linearGradient id="a">
   <stop stop-color="#ba9552" offset="0"/>
   <stop stop-color="#fff" offset="1"/>
  </linearGradient>
  <linearGradient id="b">
   <stop stop-color="#fff" offset="0"/>
   <stop stop-color="#787878" offset="1"/>
  </linearGradient>
  <radialGradient id="h" cx="210.69" cy="186.11" r="4.1509" gradientTransform="matrix(-3.6973 -.54569 .79139 -5.3621 847.25 1287)" gradientUnits="userSpaceOnUse" xlink:href="#b"/>
  <radialGradient id="c" cx="218.64" cy="176.66" r="35.147" gradientTransform="matrix(2.8723 -1.2334 1.2101 2.818 -657.54 -74.167)" gradientUnits="userSpaceOnUse">
   <stop stop-color="#a7a7a7" offset="0"/>
   <stop offset="1"/>
  </radialGradient>
  <radialGradient id="g" cx="216.97" cy="177.59" r="15.625" gradientTransform="matrix(.32577 1.2948 -1.7754 .44669 461.05 -185.06)" gradientUnits="userSpaceOnUse" xlink:href="#b"/>
  <radialGradient id="d" cx="81.015" cy="181.79" r="18.856" gradientTransform="matrix(1 0 0 2.0852 0 -197.28)" gradientUnits="userSpaceOnUse">
   <stop stop-color="#fff" offset="0"/>
   <stop stop-color="#d4a276" offset="1"/>
  </radialGradient>
  <radialGradient id="i" cx="210.8" cy="188.28" r="19.524" gradientTransform="matrix(1.3141 -.49905 .31252 .82292 -120.19 123.5)" gradientUnits="userSpaceOnUse">
   <stop stop-color="#fff" offset="0"/>
   <stop stop-color="#787878" offset="1"/>
  </radialGradient>
  <radialGradient id="f" cx="97.827" cy="235.66" r="91.435" gradientTransform="matrix(2.2067 -.34892 .062886 .39772 -131.41 172.6)" gradientUnits="userSpaceOnUse">
   <stop stop-color="#bbb" offset="0"/>
   <stop stop-color="#787878" offset="1"/>
  </radialGradient>
  <radialGradient id="e" cx="292.32" cy="333.43" r="96.293" gradientTransform="matrix(2.5093 -.74116 .17774 .60176 -478.81 185.55)" gradientUnits="userSpaceOnUse">
   <stop stop-color="#fff" offset="0"/>
   <stop stop-color="#787878" offset="1"/>
  </radialGradient>
 </defs>
 <g>
  <g stroke-linecap="round">
   <g stroke-linejoin="round">
    <path d="m129.01 134.72l-2.9931 0.5466 2.7043 39.628c0.49254 1.3296 1.6373 1.8765 2.9915 2.1721l-2.7026-42.347z" stroke="#000" stroke-width=".21"/>
    <g fill="#fff" fill-rule="evenodd" stroke-width=".1">
     <path d="m39.852 390.67c1.7026-7.53 2.433-12.544 8.1436-21.867-3.7334 15.514-3.4431 15.018 0.62232 18.847 9.0304-7.7846 4.6007-19.418 2.8181-29.516 5.8922 5.4336 9.6794 14.168 11.329 25.229 4.5151-6.5323 7.1887-16.565 5.6574-21.874 3.2427 6.2119 6.2216 10.552 5.6656 24.64 0.11307-5.8535 4.3729-30.039 9.1253-37.094-1.6384 12.054 1.5145 20.241 6.1581 30.158 3.7292-7.2819 2.4085-16.202 1.8788-23.816 2.472 5.9823 5.0853 22.778 5.0853 22.778 0.22286-12.996 3.5573-24.609 7.9952-35.731-3.6487 14.084-3.0698 26.974 2.2601 35.71 5.3325-15.524 0.69211-16.927 8.4331-33.514-3.2432 11.499-0.85031 22.78 5.7704 30.18 5.8481-5.9505 9.2848-25.994 7.0417-32.978 4.5533 2.3307 5.1764 11.286 3.369 24.748 3.6881-10.567 1.704-8.8725 8.758-17.756-3.5979 8.4119-1.2348 13.986 4.3437 17.968 6.5089-4.9782 5.8953-24.898 4.6686-33.076 3.346 9.1053 9.6342 16.998 8.6945 34.333-0.67943-12.884 2.9412-23.338 8.5885-30.286-1.375 4.8806-8.9808 24.182 8.3841 24.378 9.7269-2.4292 3.1642-39.778 3.1642-39.778 3.9042 7.212 5.21 9.9095 8.2229 35.84 5.4118-1.4399 8.4263-7.9378 7.1359-25.971 6.0385 5.9542-0.85246 17.746 10.945 13.412-5.7252-6.2798 6.3284-30.738 6.3284-30.738-2.7163 13.892-7.4354 29.597 5.4243 29.382-3.8622-2.9953 3.2926-2.6803 8.1181-19.291 0.54373 14.197-5.3501 20.765 3.6667 21.718-0.71728-10.125 2.5455-21.503 2.1405-33.539 4.1499 8.9027-5.1676 19.948 7.6108 29.812 5.1271-14.536 0.24884-32.824-1.3314-49.875 9.0825 16.992 9.9319 28.836 12.18 48.971 4.9306-11.1 4.5071-22.836 16.718-29.804-8.0569 13.498-10.262 22.264-4.0616 30.708l23.505 22.149" filter="url(#v)"/>
     <path d="m375.49 403.68c-8.6628-7.8613-25.502-48.38-22.922-58.337-6.1871 3.6271-6.3424 16.212-2.7343 34.913-6.0087-14.496-3.0957-12.283-13.681-24.154 5.71 11.487 10.32 23.655 2.8301 29.675-9.5098-6.4473-10.246-34.38-9.1836-45.926-3.9547 13.014-12.125 24.566-9.4215 48.756-0.080627-18.09-8.6268-44.117-17.088-53.391 2.3156 6.7218 14.062 41.454-10.23 43.118-13.81-2.6216-0.9173-44.663-0.9173-44.663-4.8876 10.408-20.939 1.6067-23.08 38.145-7.6909-1.5823-8.8083-9.1236-8.446-34.47-7.976 8.8184-5.37 27.674-22.231 22.553 7.5114-9.2489-11.32-42.52-11.32-42.52 4.9147 19.228 12.778 40.835-5.2403 41.563 5.1664-4.5022-16.172-17.962-24.257-40.828 0.37569 19.917 9.1519 28.638-3.3937 30.694 0.19331-14.231-7.3584-17.793-7.7553-34.674-5.0962 12.794 8.8311 27.51-8.2666 42.34-8.3409-19.937-1.2901-30.618-0.44333-54.612-11.353 24.513-21.164 14.467-22.699 42.831-7.7906-15.143-8.1377-31.605-25.789-40.381 12.359 18.249 16.147 30.344 8.1444 42.66l-31.13 32.887" filter="url(#u)"/>
     <path d="m8.8874 459.48c1.4864-6.5737 19.192-78.567 24.177-86.705-3.2593 13.544-0.5467 13.016 3.0024 16.36 7.8835-6.796 2.7035-11.7 1.1473-20.516 5.1439 4.7436 8.4501 12.369 9.8902 22.025 3.9417-5.7027 6.2758-14.461 4.9389-19.096 2.8309 5.423 12.402 16.829 11.917 29.128 0.098713-5.1101 3.1611-23.599 7.31-29.758-1.4303 10.523 0.176 27.413 4.2298 36.071 3.2556-6.3571 2.1026-14.145 1.6402-20.792 2.1581 5.2226 4.4395 19.885 4.4395 19.885 0.19455-11.346 3.1056-21.484 6.9799-31.194-3.1853 12.295-2.68 23.548 1.9731 31.175 4.6553-13.552 0.60422-14.778 7.3622-29.258-2.8313 10.038 3.1964 10.697 8.9764 17.157 5.1054-5.1948 8.1057-14.67 6.1475-20.767 3.975 2.0347 4.519 9.8524 2.9412 21.606 3.2197-9.2248 1.4876-7.7457 7.6458-15.501-3.141 7.3436-1.078 4.3327 3.7921 7.8087 5.6823-4.346 5.1466-21.736 4.0757-28.875 2.9211 7.949 8.4107 14.839 7.5903 29.973-0.59314-11.248 2.5677-20.374 7.4978-26.44-1.2004 4.2608-7.2672 26.269 7.8924 26.44 8.4916-2.1207 2.7623-34.727 2.7623-34.727 3.4084 6.2961 6.8407 7.0896 9.471 29.727 4.7246-1.257 7.3562-6.9298 6.2297-22.673 5.2716 5.1981-0.7442 24.088 9.5552 20.305-4.9982-5.4823 5.5247-26.834 5.5247-26.834-2.3713 12.127-6.4912 15.838 4.7355 15.65-3.3717-2.615 2.8744-2.3399 7.0871-16.841 0.47469 12.394-4.6707 18.128 3.201 18.96-0.62619-8.8393 3.9415-11.322 3.5879-21.83 3.6228 7.7721-4.5114 17.415 6.6443 26.026 4.476-12.69 0.21726-28.655-1.1623-43.541 7.9291 14.834 8.6706 15.174 10.633 32.752 4.3044-9.6903 3.9347-19.936 14.595-26.019-7.0337 11.783-8.9584 19.437-3.5458 26.808l20.52 19.336"/>
    </g>
    <g stroke="#000">
     <g stroke-width=".21">
      <path d="m246.11 196.78l-14.817 15.08-4.4714 153.44 15.426 8.99 3.8624-177.51z" fill="url(#j)"/>
      <path d="m285.4 187l-39.289 9.7738-3.8624 177.51 35.517-8.99 7.6345-178.3z" fill="url(#k)"/>
      <path d="m193.7 226.57l-1.2673-97.312c-6.2294-48.514-54.709-106.23-67.803-40.74l6.0246 87.923 63.046 50.129z" fill="url(#c)"/>
     </g>
     <g transform="matrix(.98558 0 0 .98558 4.9352 -16.848)" stroke-width=".213">
      <path d="m16.517 251.74c-4.4924 2.7653-8.008 6.662-6.9224 10.672 1.6144 4.7788 5.61 4.9196 9.8738 3.5151 6.7935-2.2378 6.0842-11.347-5.8546-7.2584-1.7856 0.63751-3.1994 0.70117-3.8091 0.41382 1.0684-3.8877 4.0471-5.3614 6.7123-7.342z" fill="url(#q)"/>
      <path d="m14.953 249.99c-4.7261 3.2396-8.2009 5.8049-7.2033 15.076 0 0-6.7113-6.9717-6.7633-7.7118-0.44758-6.3728 2.3835-11.336 7.7464-14.283 1.7566 2.4125 3.6879 4.7505 6.2202 6.918z" fill="url(#p)"/>
      <path d="m14.974 250.04l1.7665 1.4982c-3.2835 2.6503-6.0128 4.117-7.0247 8.0898-1.7153 10.752 16.218 7.2233 13.527-0.31271 0.68092 0.64526 1.673 3.5199 1.0446 4.7185-3.0057 5.4422-7.2987 4.4948-9.65 4.6188-4.5651 0.099579-5.255-1.6522-7.2405-4.0138-0.38904-5.0938-0.11937-10.29 7.5772-14.599z" fill="#787878"/>
      <path d="m193.39 248.49l-0.4598 3.6775-98.077 18.927c-36.322 1.5531-80.258-9.997-89.515-34.512l-0.0117-5.0328c12.04 30.137 66.266 38.893 89.501 36.066l98.562-19.125z" fill="url(#o)"/>
      <path d="m193.37 248.54l-66.267-52.606-92.218 10.366c-74.104 22.71 7.6502 68.997 59.847 61.298l98.638-19.058z" fill="url(#f)"/>
     </g>
     <path d="m91.509 176.01c6.731 12.974 8.1047 30.674 3.9158 39.029-5.1081 10.189-16.07 4.315-23.758-10.888-9.2237-18.24-11.042-42.759-5.0537-54.112 7.0866-13.435 21.931-5.3214 32.272 15.508" fill="url(#d)" fill-rule="evenodd" stroke-width="1.971"/>
    </g>
    <g fill-rule="evenodd" stroke-width="1.971">
     <path d="m91.379 219.5l155.2-38.344c8.0851-3.8331 8.414-30.453-5.2342-45.348-55.028 10.458-161.68 14.027-165.08 31.374 5.1618-12.519 34.535 27.681 15.119 52.318z" fill="url(#l)" stroke="#fff"/>
     <path d="m99.355 167.24c-7.5366-16.217-18.648-27.883-28.04-24.209l159.2-28.974c9.1591-1.8618 18.522 11.57 22.87 21.668l-154.03 31.514z" fill="url(#m)" stroke="#000"/>
    </g>
   </g>
   <path d="m151.98 129.13c34.866 11.666 36.115 34.335 37.842 65.474 0 0 175.88-39.409 53.938-81.16-3.8654-1.3234-92.597 16.503-91.78 15.686z" fill="#1a1a1a" filter="url(#t)" opacity=".633" stroke-width="10"/>
   <g stroke-linejoin="round">
    <path d="m81.772 193.01c-4.6186-8.5716-9.4712-18.254-6.77-24.049 3.4388-7.3778 11.093-3.3911 16.506 7.0438 6.731 12.974 8.1047 30.674 3.9158 39.029-5.1081 10.189-16.07 4.315-23.758-10.888-9.2237-18.24-11.042-42.759-5.0537-54.112 7.0866-13.435 21.931-5.3214 32.272 15.508 0.46854 0.94365 0.92604 1.9078 1.3719 2.8894" fill="none" stroke="#000" stroke-width="1.971"/>
    <g stroke-width=".21">
     <path d="m202.65 127.44c-3.257-31.508-26.939-69.002-45.462-74.708l185.73-49.542c32.048-7.9359 54.773 29.457 54.998 54.05l-195.26 70.2z" fill="url(#n)" stroke="#fff"/>
     <g stroke="#000">
      <path d="m398.01 57.263l-11.66 83.076-182.39 84.691-1.2548-97.66 195.31-70.107z" fill="url(#e)"/>
      <path d="m125.87 133.62l3.0074-0.4701-2.8638-45.353c9.4806-63.041 59.187-10.198 66.449 41.477l1.2275 97.074c2.7556 7.2834 13.523 1.363 10.413-1.1624l-1.4632-97.832c-9.2822-69.196-72.031-110.31-80.047-42.236l3.2771 48.502z"/>
     </g>
    </g>
    <g fill="#fff">
     <path d="m146.34 54.378c-3.3399 0.42643-4.5132 0.88956-0.53934 0.50761 14.349 1.804 24.979 13.945 32.392 25.476 13.029 20.155 20.397 44.154 18.618 68.273 0.62268 25.641-0.088409 51.838 1.5277 77.126 4.4099 0.76225 0.35979-5.5005 1.5546-7.741-0.80901-31.851 0.030762-63.817-2.1574-95.589-4.9086-25.459-16.855-52.326-40.228-65.545-3.505-1.6989-7.2955-2.7702-11.167-2.5063z" filter="url(#r)" opacity=".587" stroke-width=".207"/>
     <g fill-rule="evenodd" stroke-width=".1">
      <path d="m372.73 448.36c-30.534-12.658-27.383-92.839-21.47-102.85-4.0957 11.145-17.044 8.99-15.894 30.209 0.83164-15.771-3.6001-28.566-10.513-37.071 1.6831 5.9741 10.189 36.832-11.066 37.071-11.906-2.9735 1.4272-38.973 1.4272-38.973-4.7789 8.8278-14.892 7.2335-18.58 38.973-6.6243-1.7625-10.504-16.925-8.925-38.999-7.3914 7.2882-2.0484 32.449-16.489 27.145 7.0079-7.6867-7.7462-37.624-7.7462-37.624 3.3249 17.004 8.4449 25.724-7.296 25.461 4.7274-3.6664-4.0303-3.2808-9.9368-23.613-0.66554 17.378 6.5488 25.417-4.4882 26.583 0.87799-12.394-5.5264-15.875-5.0306-30.608-5.0796 10.897 6.3254 24.418-9.316 36.491-6.2757-17.792 0.40212-26.75 2.3364-47.621-11.117 20.799-12.864 21.869-15.616 46.515-6.0352-13.587-5.5169-27.952-20.464-36.481 9.862 16.522 12.56 27.252 4.9715 37.588l-41.244 59.935"/>
      <path d="m11.159 446.77c2.6478-11.71 11.004-85.154 19.885-99.651-5.8058 24.126-3.3125 32.541 3.0095 38.497 14.043-12.106 7.1545-30.197 4.3824-45.9 9.1628 8.4497 15.052 12.032 17.617 29.233 7.0213-10.158 11.179-25.76 8.7977-34.016 5.0427 9.66 12.738 22.638 11.873 44.546 0.17583-9.1027 6.8002-56.714 14.191-67.685-2.5479 18.744 0.31352 48.831 7.5346 64.253 5.7992-11.324 3.7454-25.196 2.9216-37.036 3.8442 9.303 7.9081 35.422 7.9081 35.422 0.34656-20.21 5.5319-48.269 12.433-65.565-5.674 21.901-4.7739 41.946 3.5147 55.532 8.2924-24.14 1.0763-26.323 13.114-52.116-5.0435 17.881-1.3223 35.425 8.9734 46.932 9.0943-9.2534 14.439-26.131 10.95-36.992 7.0807 3.6244 8.0498 17.55 5.2391 38.486 5.7353-16.432 2.6498-13.797 13.619-27.612-5.5951 13.081-1.9201 21.75 6.7548 27.942 10.122-7.7414 9.1676-53.718 7.26-66.435 5.2034 14.159 14.982 26.433 13.521 53.39-1.0566-20.036 4.5738-46.292 13.356-57.097-2.1383 7.5897-12.945 61.793 14.059 62.097 15.126-3.7776 4.9206-61.859 4.9206-61.859 6.0713 11.215 12.185 21.535 16.87 61.859 8.4158-2.2392 13.104 2.6561 11.097-25.387 9.3904 9.2593-1.3256 42.908 17.021 36.17-8.9032-9.7656 9.8411-47.8 9.8411-47.8-4.224 21.602-11.563 56.026 8.4353 55.691-6.006-4.658 5.1202-4.1681 12.624-30 0.84552 22.078-8.3199 32.291 5.7019 33.772-1.1154-15.745 7.021-10.168 6.3912-28.885 6.4534 13.844-8.0361 31.021 11.835 46.359 7.973-22.604 9.8685-25.727 7.411-52.243 14.124 26.424 5.9634 29.527 9.4595 60.837 7.6674-17.261 7.0089-25.512 25.998-36.347-12.529 20.99-15.958 34.623-6.3161 47.753l36.553 34.444" filter="url(#s)" opacity=".6"/>
     </g>
    </g>
    <g transform="matrix(.98558 0 0 .98558 4.9352 -16.848)" stroke="#000">
     <g stroke-width=".103">
      <path d="m206.99 168.15l8.2852 5.7255 31.938-13.01-8.5514-5.3842-31.672 12.669z" fill="url(#i)"/>
      <path d="m215.54 173.85l-0.5021 25.446-7.9438-5.7042-0.1055-25.549 8.5514 5.8065z" fill="url(#h)"/>
      <path d="m215.04 199.3l0.4016-25.659 31.778-12.88-0.1056 25.338-32.074 13.201z" fill="url(#g)"/>
     </g>
     <path d="m214.79 167.55c-0.003006 0.86777 1.097 1.2891 2.062 1.2784 4.6944-0.051971 7.5315-1.7265 9.0315-3.4641 0.42143-0.48822 1.1464-0.87264 1.1134-2.2269-0.51135-20.99 1.2557-55.776 0.86604-81.737-0.13444-9.168 4.4825-4.2326 28.579-17.857 5.0554-2.8583 5.064-3.7944 5.0724-8.619 0.018951-10.035 0.13074-13.859 1.2372-31.837 0.11664-1.8954-1.3322-4.325-4.3301-3.6291-14.507 3.3673-14.715 3.4184-37.172 8.8038-3.5129 0.84243-5.4152 1.2641-5.5954 7.2845-0.99518 33.252-0.74831 98.465-0.86438 132z" fill="#f00" stroke-width=".213"/>
    </g>
    <path d="m7.8821 451.6c11.614-36.62 25.989-50.716 50.788-78.107-5.2669 20.772-26.254 35.404-13.731 46.596-2.2603-13.784 1.872-34.821 14.985-50.186-5.1904 15.752-3.3908 40.672 6.5345 50.212 10.132-24.4 11.831-45.76 4.8424-74.998 7.8789 14.337 11.736 34.791 10.824 51.159 2.5656-11.346 3.6661-28.902 12.271-42.949-5.6256 23.377-3.2097 31.531 2.9161 37.302 13.607-11.73 6.9325-29.259 4.2464-44.475 8.8785 8.1874 14.585 21.348 17.071 38.015 6.8034-9.843 10.832-24.96 8.5247-32.96 4.8862 9.3602 12.342 26.781 11.505 48.008 0.17036-8.8202 6.5892-60.264 13.75-70.895-2.4688 18.162 0.3038 47.315 7.3008 62.259 5.6193-10.972 3.6291-24.414 2.8309-35.887 3.7249 9.0142 7.6626 34.322 7.6626 34.322 0.33582-19.582 5.3603-37.081 12.047-53.841-5.4979 21.222-4.6257 40.644 3.4056 53.809 8.0351-23.391 1.0429-40.506 12.707-65.499-4.8869 17.326-1.2812 34.325 8.695 45.476 8.8121-8.9663 13.991-25.32 10.611-35.844 6.861 3.5119 7.7999 17.005 5.0765 37.292 5.5573-15.922 2.5676-28.369 13.197-41.755-5.4214 12.675-1.8606 21.075 6.5452 27.075 9.8077-7.5012 9.5396-34.89 7.6912-47.213 5.0419 13.72 13.861 22.987 12.444 49.108-1.0238-19.414 4.4318-20.166 12.941-30.635-2.0719 7.3542-12.543 45.341 13.622 45.635 14.657-3.6604 4.7678-59.939 4.7678-59.939 5.8829 10.867 11.807 20.867 16.347 59.939 8.1547-2.1697 12.697 3.0392 10.752-24.134 9.0989 8.972-1.2845 41.577 16.492 35.047-8.6269-9.4625 9.5357-46.316 9.5357-46.316-4.093 20.932-11.204 59.597 8.1735 59.273-5.8196-4.5135 4.9613-4.0387 12.232-29.068 0.81928 21.392-13.313 31.19 5.525 47.724 10.735 19.536 21.902 63.171 21.291 45.035" fill="#fff" fill-rule="evenodd" opacity=".633" stroke-width=".1"/>
   </g>
  </g>
 </g>
</svg>
